<svg xmlns="http://www.w3.org/2000/svg" width="20" height="20"><path d="M12.599 9.778L8.806 7.364a.346.346 0 0 0-.53.291v4.828a.345.345 0 0 0 .53.29l3.793-2.413a.346.346 0 0 0 0-.582zm-3.633 2.077V8.283l2.805 1.786-2.805 1.786z"/><path d="M19.655 2.138H.345A.345.345 0 0 0 0 2.483v15.172c0 .19.154.345.345.345h19.31c.19 0 .345-.154.345-.345V2.483a.345.345 0 0 0-.345-.345zM3.448 9.724H.69V6.621h2.758v3.103zm-2.758.69h2.758v3.103H.69v-3.103zm3.448 3.448V2.828h11.724V17.31H4.138v-3.448zM19.31 9.724h-2.758V6.621h2.758v3.103zm-2.758.69h2.758v3.103h-2.758v-3.103zm2.758-7.586V5.93h-2.758V2.828h2.758zm-18.62 0h2.758V5.93H.69V2.828zm0 14.482v-3.103h2.758v3.103H.69zm18.62 0h-2.758v-3.103h2.758v3.103z"/></svg>